<svg width="24" height="24" viewBox="0 0 24 24" fill="none" xmlns="http://www.w3.org/2000/svg">
<path d="M17.7912 12.7601C17.8193 15.7868 20.4464 16.794 20.4754 16.8068C20.4532 16.8778 20.0557 18.2422 19.0914 19.6514C18.2578 20.8698 17.3926 22.0836 16.0297 22.1088C14.6906 22.1334 14.26 21.3147 12.7289 21.3147C11.1983 21.3147 10.7199 22.0836 9.45222 22.1334C8.1367 22.1833 7.13491 20.816 6.29446 19.6021C4.5769 17.1191 3.26436 12.5855 5.02677 9.52536C5.90228 8.00563 7.46698 7.04336 9.1652 7.01867C10.457 6.99406 11.6763 7.88776 12.466 7.88776C13.2552 7.88776 14.737 6.81301 16.2947 6.97084C16.9467 6.998 18.7772 7.2342 19.9526 8.95468C19.8578 9.0134 17.7684 10.2297 17.7912 12.7602M15.2744 5.32809C15.9729 4.48267 16.4429 3.30582 16.3147 2.13477C15.3079 2.17522 14.0906 2.80563 13.3685 3.65054C12.7214 4.39883 12.1546 5.59641 12.3076 6.74425C13.4297 6.83108 14.576 6.17402 15.2744 5.32809Z" fill="black"/>
</svg>
