<svg width="191" height="56" viewBox="0 0 191 56" fill="none" xmlns="http://www.w3.org/2000/svg">
<g clip-path="url(#clip0_20_30000)">
<path d="M29.3591 29.2929C27.9578 29.1377 26.4981 28.2694 26.6218 26.9019C26.741 25.5726 27.9803 26.1911 28.97 25.9257C32.8657 24.8821 29.7213 19.567 25.4049 21.7353C22.6541 23.1186 18.9495 29.5965 24.7144 32.3789C32.6881 36.2251 43.6825 23.6877 35.8438 15.7028C32.886 12.6888 28.7518 12.2637 25.821 12.8215C19.4961 14.0226 15.6026 18.9642 14.46 24.6729C11.8936 37.4869 25.1193 46.0904 35.0183 38.7083C36.5231 37.5859 38.0773 35.0577 39.5708 34.392C40.2568 34.0861 41.5209 34.4729 41.9033 35.4716C42.6096 37.316 39.7058 39.9341 38.5586 40.9148C33.4168 45.3054 22.9645 47.7976 14.9436 38.7735C3.5533 25.9617 15.0718 6.74396 29.5458 9.23165C33.8329 9.96716 38.1605 12.646 40.5312 16.625C47.3308 28.0355 32.0515 42.5973 21.471 34.1108C12.6853 27.0616 21.8488 14.1665 30.3488 18.5819C36.6243 21.841 34.4042 29.8484 29.3591 29.2929Z" fill="#4F39F6"/>
<path d="M22.3168 54.1564C21.5409 55.3845 19.674 54.8942 19.2916 53.1353C19.0262 51.9094 20.1261 45.2403 22.6385 48.0452C23.4932 49.0011 22.7779 53.4299 22.3191 54.1564H22.3168Z" fill="#4F39F6"/>
<path d="M35.2543 4.85187C34.6583 6.11146 33.0568 7.48127 32.1886 4.85187C31.7117 3.40784 32.8094 -3.35345 35.423 -0.449649C36.262 0.481548 35.6367 4.03764 35.2521 4.85187H35.2543Z" fill="#4F39F6"/>
<path d="M9.60409 37.8602C9.44439 38.8229 3.58055 41.9629 2.63361 39.5831C1.81263 37.7725 7.71695 35.2758 9.089 36.3375C9.50962 36.6636 9.76378 36.9043 9.60409 37.8602Z" fill="#4F39F6"/>
<path d="M1.16171 17.0704C1.54858 17.0591 5.55902 18.5054 6.11234 18.7011C7.97249 19.3534 8.50556 20.7749 7.53388 21.5869C6.94907 22.075 2.36057 20.6602 0.511669 19.3061C-0.356548 18.6696 -0.0798885 17.2728 0.979516 17.0884C1.038 17.0771 1.09873 17.0726 1.15946 17.0704H1.16171Z" fill="#4F39F6"/>
<path d="M52.0072 15.5586C51.7508 16.6472 47.4142 18.5411 46.0984 18.1655C43.9548 17.5559 44.9625 15.878 45.7925 15.3336C46.42 14.922 49.8007 13.7367 50.6554 13.8266C52.0297 13.9706 52.1624 14.9018 52.0094 15.5563L52.0072 15.5586Z" fill="#4F39F6"/>
<path d="M13.7497 0.60456C14.1186 0.591064 15.025 0.557325 17.0021 3.74454C18.7701 6.59436 18.4619 7.3861 18.2482 7.67401C18.0773 7.90568 17.8164 7.97316 17.7421 7.9934C16.4398 8.3173 14.6449 6.21648 13.7025 4.72522C12.8635 3.39365 12.3304 1.76968 12.8005 1.07016C13.0907 0.638299 13.7115 0.606809 13.7497 0.606809V0.60456Z" fill="#4F39F6"/>
<path d="M41.865 52.2036C40.6818 55.5416 35.0429 46.7042 36.9143 45.6178C38.7925 44.5269 42.2136 51.223 41.865 52.2036Z" fill="#4F39F6"/>
<path d="M53.7708 36.3546C53.7775 36.5997 53.6785 36.8629 53.4963 37.0361C53.3074 37.216 52.5449 37.8256 49.7761 36.6222C47.8709 35.7923 46.1098 34.6564 46.2155 33.7252C46.2537 33.3968 46.5371 33.1876 46.6001 33.1404C47.1264 32.7535 48.0981 32.7243 50.588 33.8489C53.3411 35.0927 53.7505 35.7743 53.7685 36.3546H53.7708Z" fill="#4F39F6"/>
<path d="M84.5288 31.7902C84.5288 32.1501 84.3579 32.528 84.016 32.9216C83.2422 33.9653 81.9579 34.8537 80.1607 35.5915C78.4715 36.2753 76.9173 36.6172 75.4958 36.6172C72.6369 36.6172 70.1583 35.5578 68.0552 33.4367C65.9701 31.2976 64.9287 28.7987 64.9287 25.9421C64.9287 23.0856 65.9071 20.5417 67.8663 18.2047C69.9333 15.7237 72.3603 14.4844 75.1449 14.4844C77.068 14.4844 78.7662 15.3031 80.2395 16.9383C81.5148 18.3216 82.4325 20.0378 82.9903 22.0869C83.1883 22.7707 83.2872 23.2453 83.2872 23.5152C83.2872 24.2889 82.7654 24.8175 81.724 25.1054C80.1787 25.5733 77.2299 25.8072 72.8821 25.8072C72.0184 25.8072 71.2199 25.7937 70.4821 25.7667C69.7444 25.7397 69.0719 25.7082 68.4601 25.6722C68.4601 27.6853 69.1438 29.4105 70.5091 30.8478C71.8744 32.3031 73.5367 33.0318 75.4958 33.0318C76.6451 33.0318 78.0734 32.555 79.7829 31.6035C81.4901 30.6521 82.4707 30.1753 82.7227 30.1753C83.1905 30.1753 83.6066 30.3282 83.9755 30.6341C84.3444 30.94 84.5288 31.3269 84.5288 31.7925V31.7902ZM79.5422 22.0846C78.5728 19.3518 77.0523 17.9865 74.9852 17.9865C73.8358 17.9865 72.6842 18.5263 71.5348 19.6037C70.5991 20.4854 69.8366 21.5358 69.2428 22.7572C70.1583 22.7392 71.4718 22.6762 73.179 22.5682C74.8862 22.4603 77.0073 22.2983 79.5422 22.0824V22.0846Z" fill="#4F39F6"/>
<path d="M103.16 31.143C103.16 32.8682 102.323 34.2538 100.652 35.2952C99.2325 36.1769 97.595 36.6155 95.7439 36.6155C91.9156 36.6155 88.8589 35.1602 86.5781 32.2474C86.866 30.7202 87.3226 29.9554 87.9524 29.9554C87.7545 29.9554 88.5912 30.5492 90.4604 31.7346C92.3655 32.9042 94.0817 33.4868 95.6089 33.4868C97.9279 33.4868 99.3382 32.776 99.8421 31.3567C99.7701 29.8475 98.6657 28.4282 96.5266 27.0966C95.537 26.5568 94.554 26.0192 93.5756 25.4794C92.5949 24.9396 91.603 24.402 90.5976 23.8622C88.4765 22.5508 87.4171 21.1293 87.4171 19.602C87.4171 18.0748 88.2426 16.7815 89.898 15.7738C91.3173 14.9101 92.8536 14.4805 94.509 14.4805C95.5684 14.4805 96.7471 14.7144 98.0404 15.1822C99.6756 15.7401 100.494 16.4576 100.494 17.3393C100.494 17.8071 100.323 18.221 99.9815 18.5786C99.6396 18.9385 99.2437 19.1185 98.7961 19.1185C98.4722 19.1185 97.8514 18.9295 96.936 18.5516C96.0183 18.1738 95.2828 17.9848 94.725 17.9848C92.6219 17.9848 91.3196 18.5336 90.8157 19.629C91.5333 20.6907 93.0448 21.7771 95.3458 22.8905C96.7111 23.5563 97.8312 24.1343 98.7017 24.6292C99.5721 25.124 100.215 25.5334 100.629 25.855C102.318 27.2203 103.164 28.9815 103.164 31.1385L103.16 31.143Z" fill="#4F39F6"/>
<path d="M123.675 30.8192C123.675 31.0531 123.585 31.314 123.405 31.6019C122.542 33.0032 121.194 34.1908 119.361 35.1603C117.546 36.1297 115.794 36.6155 114.105 36.6155C111.534 36.6155 109.404 35.6371 107.714 33.678C106.115 31.8088 105.314 29.5708 105.314 26.9639C105.314 24.555 106.016 22.2832 107.418 20.1419C108.837 18.0208 110.67 16.4576 112.917 15.4499C114.246 14.8381 115.515 14.5322 116.718 14.5322C118.048 14.5322 119.262 15.0091 120.358 15.9605C121.417 16.8962 122.074 18.0456 122.326 19.4109C121.642 20.4186 121.014 20.9201 120.439 20.9201C120.241 20.9201 119.791 20.4343 119.091 19.4649C118.425 18.4774 117.672 17.9826 116.826 17.9826C115.011 17.9826 113.241 18.9093 111.516 20.7604C109.808 22.6296 108.954 24.4807 108.954 26.3139C108.954 28.147 109.332 29.7193 110.085 30.8709C110.965 32.2722 112.305 32.974 114.102 32.974C115.414 32.974 116.977 32.3082 118.794 30.9789C120.609 29.6495 121.635 28.9838 121.867 28.9838C122.335 28.9838 122.751 29.1682 123.12 29.5371C123.489 29.906 123.673 30.3333 123.673 30.8169L123.675 30.8192Z" fill="#4F39F6"/>
<path d="M143.41 24.1342C143.41 25.2116 142.888 25.7514 141.846 25.7514C140.893 25.7514 140.274 25.0767 139.986 23.7294C139.734 22.526 139.491 21.2844 139.257 20.0091C138.772 18.6618 137.838 17.987 136.453 17.987C134.835 17.987 133.263 18.7337 131.734 20.225C130.242 21.7163 129.496 23.2705 129.496 24.89V35.8349C128.614 36.3567 127.878 36.6177 127.285 36.6177C126.763 36.6177 126.502 36.0958 126.502 35.0544C126.502 34.7665 126.497 34.4111 126.488 33.9905C126.479 33.5676 126.466 33.0796 126.448 32.5217C126.43 31.9459 126.421 30.5356 126.421 28.2886V18.9069C126.421 18.3311 126.439 17.8205 126.475 17.3707C126.511 16.9208 126.565 16.5182 126.637 16.1583C126.853 15.1327 127.366 14.6221 128.173 14.6221C129.214 14.6221 129.736 15.3598 129.736 16.8331C129.736 16.9771 129.732 17.1435 129.723 17.3324C129.714 17.5214 129.7 17.7418 129.682 17.9937C131.695 15.7827 133.888 14.6783 136.261 14.6783C138.634 14.6783 140.495 15.704 141.788 17.7508C142.865 19.476 143.405 21.606 143.405 24.141L143.41 24.1342Z" fill="#4F39F6"/>
<path d="M148.505 16.5039C148.721 17.6893 148.676 19.3605 148.37 21.5175C148.334 22.7569 148.298 23.7915 148.262 24.617C148.226 25.4448 148.199 26.0723 148.181 26.5042C148.163 27.3139 148.149 28.1169 148.14 28.9176C148.131 29.7184 148.127 30.5214 148.127 31.3311C148.091 32.2668 148.028 33.1328 147.938 33.9335C147.848 34.7342 147.74 35.4742 147.614 36.158C146.912 36.4639 146.339 36.6169 145.889 36.6169C145.169 36.6169 144.812 36.122 144.812 35.1346V30.5776C144.973 28.4025 145.054 25.1861 145.054 20.926C145.054 18.8769 145.185 17.3766 145.446 16.423C145.707 15.4715 146.251 14.9947 147.077 14.9947C148.028 14.9947 148.505 15.4985 148.505 16.5039ZM148.829 8.63149C148.829 9.15332 148.658 9.62117 148.316 10.0328C147.974 10.4466 147.542 10.6536 147.023 10.6536C146.753 10.6536 146.496 10.5996 146.253 10.4916C146.01 10.3837 145.79 10.2352 145.592 10.0463C145.394 9.85734 145.237 9.64141 145.12 9.39849C145.003 9.15557 144.944 8.89915 144.944 8.62924C144.944 7.31792 145.52 6.66113 146.669 6.66113C147.245 6.66113 147.747 6.85457 148.179 7.24144C148.611 7.62832 148.826 8.09167 148.826 8.62924L148.829 8.63149Z" fill="#4F39F6"/>
<path d="M170.91 26.0072C170.91 28.9042 169.92 31.3964 167.943 33.4837C165.966 35.571 163.548 36.6147 160.691 36.6147C158.408 36.6147 156.368 35.8162 154.571 34.2147L154.49 35.2921C153.788 35.832 153.134 36.1019 152.522 36.1019C151.838 36.1019 151.496 35.2584 151.496 33.567C151.496 31.8755 151.51 29.7432 151.537 27.2173C151.564 24.6913 151.595 21.7313 151.631 18.3349C151.667 14.9385 151.699 11.9717 151.726 9.43907C151.753 6.90414 151.766 4.78308 151.766 3.07589C151.766 0.900849 152.369 -0.185547 153.572 -0.185547C154.776 -0.185547 155.324 0.882855 155.324 3.01966V16.4365C156.654 15.2039 158.433 14.5876 160.662 14.5876C163.662 14.5876 166.143 15.7573 168.102 18.0965C169.972 20.3458 170.907 22.9819 170.907 26.0049L170.91 26.0072ZM167.459 25.8587C167.459 23.7916 166.856 21.9945 165.648 20.4672C164.315 18.814 162.659 17.9863 160.678 17.9863C158.462 17.9863 156.507 18.877 154.816 20.6562V28.6905C154.762 28.7985 154.825 28.9694 155.005 29.2034C155.455 29.8692 155.878 30.436 156.276 30.9016C156.672 31.3694 157.05 31.7293 157.412 31.979C158.365 32.7167 159.519 33.0856 160.871 33.0856C161.087 33.0856 161.312 33.0496 161.546 32.9776C165.491 32.0982 167.464 29.7252 167.464 25.861L167.459 25.8587Z" fill="#4F39F6"/>
<path d="M190.266 25.198C190.266 28.257 189.537 30.8482 188.082 32.9715C186.429 35.4007 184.146 36.6153 181.235 36.6153C178.503 36.6153 176.33 35.5897 174.71 33.5383C173.201 31.6309 172.445 29.2647 172.445 26.4396C172.445 23.2907 173.183 20.5735 174.656 18.2883C176.382 15.6072 178.71 14.2666 181.638 14.2666C184.567 14.2666 186.607 15.4362 188.19 17.7755C189.573 19.8448 190.266 22.319 190.266 25.198ZM186.897 25.198C186.897 23.4031 186.465 21.7634 185.604 20.2721C184.634 18.5312 183.303 17.6607 181.613 17.6607C177.677 17.6607 175.709 20.4611 175.709 26.0573C175.709 30.8302 177.614 33.2167 181.424 33.2167C183.24 33.2167 184.65 32.2832 185.658 30.4186C186.483 28.9476 186.897 27.2066 186.897 25.198Z" fill="#4F39F6"/>
</g>
<defs>
<clipPath id="clip0_20_30000">
<rect width="190.268" height="56" fill="white"/>
</clipPath>
</defs>
</svg>
